Coordinates
version=1
nRows=7
nColumns=42
inDegrees=yes

Units are S.I. units (second, meters, Newtons, ...)
If the header above contains a line with 'inDegrees', this indicates whether rotational values are in degrees (yes) or radians (no).

endheader
time	pelvis_tilt	pelvis_list	pelvis_rotation	pelvis_tx	pelvis_ty	pelvis_tz	hip_flexion_r	hip_adduction_r	hip_rotation_r	knee_angle_r	knee_adduction_r	knee_angle_r_beta	ankle_angle_r	subtalar_angle_r	mtp_angle_r	hip_flexion_l	hip_adduction_l	hip_rotation_l	knee_angle_l	knee_adduction_l	knee_angle_l_beta	ankle_angle_l	subtalar_angle_l	mtp_angle_l	lumbar_extension	lumbar_bending	lumbar_rotation	arm_flex_r	arm_add_r	arm_rot_r	elbow_flex_r	pro_sup_r	wrist_flex_r	wrist_dev_r	arm_flex_l	arm_add_l	arm_rot_l	elbow_flex_l	pro_sup_l	wrist_flex_l	wrist_dev_l
      0.22000000	      8.57208289	      4.15281812	      2.09720183	     -0.49107145	      0.87140115	      0.28354947	    -13.51399663	     -2.51688216	    -25.96227044	     25.82141986	     -3.18218128	      0.45066879	     29.04508716	     13.98740576	     -9.39815091	     18.73033449	     -2.91755172	     -2.34499885	     22.87318710	      4.82903521	      0.39921243	      1.86058376	     18.22028558	     -9.39815091	    -17.48089022	     -5.69400221	      3.53700370	     -7.73344201	    -16.71649979	     -4.91870887	     60.68286996	     90.00000001	      0.00000000	      0.00000000	     -8.63950180	    -13.94732883	      7.27287350	     88.69201724	     90.00000001	      0.00000000	      0.00000000
      0.23000000	      8.23529953	      4.16447445	      2.15736186	     -0.48594495	      0.87174384	      0.28254165	    -13.48040081	     -2.57721563	    -25.96430017	     25.83391215	     -3.24272118	      0.45088683	     28.87944698	     14.06220476	     -9.39105485	     18.55621496	     -2.84799587	     -2.49403270	     22.68098390	      4.87857949	      0.39585785	      1.99062338	     18.27881365	     -9.39105485	    -17.11948676	     -5.80490961	      3.50439053	     -7.19609090	    -16.56174218	     -4.76333618	     60.88088703	     90.00000001	      0.00000000	      0.00000000	     -8.49762426	    -13.67218383	      7.39393753	     88.64892115	     90.00000001	      0.00000000	      0.00000000
      0.24000000	      7.90535556	      4.18396899	      2.25224319	     -0.48080505	      0.87236778	      0.28155956	    -13.38616479	     -2.66185564	    -25.96897466	     25.99207445	     -3.28539625	      0.45364728	     28.46485477	     14.13070917	     -9.38212829	     18.32194333	     -2.75365397	     -2.65089625	     22.34130167	      4.87684241	      0.38992927	      2.19810203	     18.41187775	     -9.38212829	    -16.78237186	     -5.93325978	      3.40266989	     -6.67016848	    -16.37521061	     -4.53260462	     61.10190687	     90.00000001	      0.00000000	      0.00000000	     -8.39047806	    -13.42776195	      7.50902378	     88.48436281	     90.00000001	      0.00000000	      0.00000000
      0.25000000	      7.63223967	      4.26727179	      2.39071487	     -0.47552132	      0.87331217	      0.28033383	    -13.31567229	     -2.92340704	    -26.21051110	     26.32816629	     -3.28080365	      0.45951319	     27.16395050	     13.99540149	     -9.33785917	     17.95362248	     -2.51881188	     -2.72878110	     21.86061702	      4.79218120	      0.38153974	      2.62935995	     19.11969649	     -9.33785917	    -16.49609770	     -6.07704202	      3.32221993	     -6.34122671	    -16.47461307	     -3.68463196	     61.30810929	     90.00000001	      0.00000000	      0.00000000	     -8.17012104	    -13.16946135	      7.48363516	     87.86870871	     90.00000001	      0.00000000	      0.00000000
      0.26000000	      7.35741014	      4.23322684	      2.47826230	     -0.47032142	      0.87437014	      0.27931235	    -13.10352899	     -3.01490138	    -26.09647997	     26.84050813	     -3.35583669	      0.46845524	     26.46138484	     13.87641897	     -9.31894053	     17.61443415	     -2.54662926	     -3.05845310	     21.40417018	      4.84339448	      0.37357324	      2.82045148	     19.42300368	     -9.31894053	    -16.22632745	     -6.11719375	      3.10390877	     -5.92246521	    -16.39209090	     -3.29576596	     61.65623292	     90.00000001	      0.00000000	      0.00000000	     -8.13297743	    -12.99702877	      7.58760519	     87.74884749	     90.00000001	      0.00000000	      0.00000000
      0.27000000	      7.10903252	      4.13327143	      2.87123167	     -0.46509239	      0.87557807	      0.27811768	    -13.03455279	     -2.93661831	    -26.07487325	     27.14898814	     -3.28190093	      0.47383923	     26.16820251	     13.84030452	     -9.31486055	     17.38857815	     -2.60613414	     -3.33107471	     21.15232759	      4.89117668	      0.36917776	      2.90474909	     19.49097005	     -9.31486055	    -16.04686507	     -6.07814081	      2.83692370	     -5.84589636	    -16.30506274	     -3.18388337	     61.76859956	     90.00000001	      0.00000000	      0.00000000	     -7.92434215	    -12.83465115	      7.65791049	     87.79052151	     90.00000001	      0.00000000	      0.00000000
      0.28000000	      6.91862244	      4.08845378	      2.94362475	     -0.45991934	      0.87704086	      0.27697291	    -12.74322641	     -3.15099435	    -25.35023530	     28.08320050	     -2.97389914	      0.49014431	     23.65319070	     11.51045749	     -9.18671327	     16.91331377	     -2.62257233	     -4.26883453	     20.58876279	      4.63771723	      0.35934170	      3.32932000	     21.81343128	     -9.18671327	    -15.89789146	     -6.09486006	      2.80202461	     -6.01592282	    -17.05594196	     -1.12034394	     63.32639513	     90.00000001	      0.00000000	      0.00000000	     -7.83063460	    -12.64238820	      7.66880485	     87.65262924	     90.00000001	      0.00000000	      0.00000000
